<svg width="24" height="24" viewBox="0 0 24 24" fill="none" xmlns="http://www.w3.org/2000/svg">
<path d="M16.1251 8.25C16.6442 8.25 17.1517 8.09605 17.5834 7.80761C18.0151 7.51917 18.3516 7.1092 18.5502 6.62954C18.7489 6.14989 18.8009 5.62209 18.6996 5.11289C18.5983 4.60369 18.3483 4.13596 17.9812 3.76885C17.6141 3.40173 17.1464 3.15173 16.6372 3.05044C16.128 2.94915 15.6002 3.00114 15.1205 3.19982C14.6409 3.3985 14.2309 3.73495 13.9424 4.16663C13.654 4.59831 13.5001 5.10583 13.5001 5.625C13.5001 6.32119 13.7766 6.98887 14.2689 7.48116C14.7612 7.97344 15.4289 8.25 16.1251 8.25ZM16.1251 4.5C16.3476 4.5 16.5651 4.56598 16.7501 4.6896C16.9351 4.81321 17.0793 4.98892 17.1644 5.19448C17.2496 5.40005 17.2718 5.62625 17.2284 5.84448C17.185 6.06271 17.0779 6.26316 16.9206 6.4205C16.7632 6.57783 16.5628 6.68498 16.3445 6.72838C16.1263 6.77179 15.9001 6.74951 15.6945 6.66437C15.489 6.57922 15.3133 6.43502 15.1897 6.25002C15.066 6.06501 15.0001 5.84751 15.0001 5.625C15.0001 5.32663 15.1186 5.04048 15.3296 4.82951C15.5405 4.61853 15.8267 4.5 16.1251 4.5ZM3.03006 7.29C3.05763 7.19545 3.10357 7.10726 3.16523 7.03045C3.22689 6.95365 3.30307 6.88975 3.38943 6.84239C3.47579 6.79503 3.57063 6.76515 3.66854 6.75444C3.76645 6.74374 3.8655 6.75242 3.96006 6.78L10.5001 8.68781L11.4676 7.71938C11.5372 7.64964 11.6199 7.59432 11.711 7.55658C11.802 7.51884 11.8996 7.49941 11.9982 7.49941C12.0967 7.49941 12.1943 7.51884 12.2854 7.55658C12.3764 7.59432 12.4592 7.64964 12.5288 7.71938L15.3104 10.5H18.7501C18.949 10.5 19.1397 10.579 19.2804 10.7197C19.421 10.8603 19.5001 11.0511 19.5001 11.25C19.5001 11.4489 19.421 11.6397 19.2804 11.7803C19.1397 11.921 18.949 12 18.7501 12H15.0001C14.9015 12.0001 14.804 11.9807 14.7129 11.9431C14.6219 11.9055 14.5391 11.8503 14.4694 11.7806L13.9435 11.25L3.53724 8.21625C3.34766 8.15993 3.18799 8.03099 3.093 7.85752C2.99801 7.68405 2.97539 7.48007 3.03006 7.29ZM22.1663 19.1475C21.371 19.6789 20.4688 20.0295 19.5233 20.1744C18.5779 20.3194 17.6121 20.2553 16.6941 19.9866L2.04099 15.7191C1.94479 15.693 1.85474 15.648 1.77612 15.5868C1.69749 15.5255 1.63186 15.4492 1.58307 15.3623C1.53428 15.2754 1.5033 15.1796 1.49194 15.0806C1.48059 14.9816 1.48908 14.8813 1.51693 14.7856C1.54479 14.6899 1.59143 14.6007 1.65415 14.5232C1.71687 14.4458 1.79439 14.3816 1.8822 14.3344C1.97001 14.2872 2.06634 14.2581 2.16556 14.2486C2.26478 14.2391 2.36489 14.2494 2.46006 14.2791L9.58506 16.3538L12.0685 13.875L8.04381 12.7209C7.94907 12.6939 7.8606 12.6484 7.78344 12.5871C7.70628 12.5258 7.64194 12.4499 7.59411 12.3638C7.49749 12.1898 7.47395 11.9846 7.52865 11.7933C7.55574 11.6985 7.60122 11.6101 7.66249 11.5329C7.72377 11.4558 7.79965 11.3914 7.88579 11.3436C8.05976 11.247 8.26498 11.2234 8.45631 11.2781L13.7063 12.7781C13.8319 12.814 13.946 12.882 14.0372 12.9755C14.1284 13.069 14.1936 13.1847 14.2264 13.3111C14.2592 13.4376 14.2584 13.5704 14.224 13.6964C14.1897 13.8225 14.1231 13.9373 14.0307 14.0297L11.2276 16.8328L17.1141 18.5466C17.8218 18.7538 18.5664 18.8033 19.2953 18.6915C20.0242 18.5798 20.7198 18.3095 21.3329 17.8997C21.4148 17.845 21.5067 17.807 21.6033 17.7879C21.6999 17.7687 21.7994 17.7688 21.896 17.7881C21.9925 17.8074 22.0844 17.8455 22.1662 17.9003C22.2481 17.955 22.3184 18.0254 22.373 18.1073C22.4277 18.1893 22.4657 18.2812 22.4848 18.3778C22.504 18.4744 22.5039 18.5738 22.4846 18.6704C22.4653 18.767 22.4272 18.8589 22.3724 18.9407C22.3177 19.0226 22.2473 19.0928 22.1654 19.1475H22.1663Z" fill="#26272B"/>
</svg>
