<svg width="24" height="24" viewBox="0 0 24 24" fill="none" xmlns="http://www.w3.org/2000/svg">
<path d="M15.375 7.5C15.8942 7.5 16.4017 7.34605 16.8334 7.05761C17.2651 6.76917 17.6015 6.3592 17.8002 5.87955C17.9989 5.39989 18.0509 4.87209 17.9496 4.36289C17.8483 3.85369 17.5983 3.38596 17.2312 3.01885C16.8641 2.65173 16.3963 2.40173 15.8871 2.30044C15.3779 2.19915 14.8501 2.25114 14.3705 2.44982C13.8908 2.6485 13.4808 2.98495 13.1924 3.41663C12.904 3.84831 12.75 4.35583 12.75 4.875C12.75 5.57119 13.0266 6.23887 13.5189 6.73116C14.0111 7.22344 14.6788 7.5 15.375 7.5ZM15.375 3.75C15.5975 3.75 15.815 3.81598 16 3.9396C16.185 4.06321 16.3292 4.23892 16.4144 4.44448C16.4995 4.65005 16.5218 4.87625 16.4784 5.09448C16.435 5.31271 16.3278 5.51316 16.1705 5.6705C16.0132 5.82783 15.8127 5.93498 15.5945 5.97838C15.3763 6.02179 15.1501 5.99951 14.9445 5.91437C14.7389 5.82922 14.5632 5.68502 14.4396 5.50002C14.316 5.31501 14.25 5.09751 14.25 4.875C14.25 4.57663 14.3685 4.29048 14.5795 4.07951C14.7905 3.86853 15.0766 3.75 15.375 3.75ZM20.461 10.53L7.71096 6.78C7.61647 6.75218 7.51742 6.74324 7.41947 6.75369C7.32153 6.76415 7.2266 6.79379 7.14011 6.84093C6.96544 6.93613 6.83574 7.09683 6.77955 7.28766C6.72336 7.47849 6.74527 7.68383 6.84048 7.8585C6.93568 8.03317 7.09637 8.16287 7.28721 8.21906L11.1169 9.34406L7.97533 14.0625L3.78189 12.8438C3.18093 12.6681 2.5348 12.7383 1.98564 13.0391C1.43648 13.3398 1.02928 13.8464 0.853613 14.4473C0.677948 15.0483 0.74821 15.6944 1.04894 16.2436C1.34967 16.7928 1.85624 17.2 2.45721 17.3756L17.2172 21.6563C17.4349 21.7186 17.6602 21.7501 17.8866 21.75C18.4557 21.751 19.0061 21.5463 19.4362 21.1735C19.8663 20.8008 20.1472 20.2852 20.2271 19.7216C20.307 19.1581 20.1806 18.5847 19.8711 18.1071C19.5615 17.6294 19.0898 17.2798 18.5428 17.1225L13.7719 15.7397L15.6235 12.9797C15.6892 12.8817 15.7309 12.7695 15.7451 12.6523C15.7593 12.5352 15.7457 12.4163 15.7053 12.3054C15.6649 12.1945 15.5989 12.0947 15.5127 12.0141C15.4265 11.9335 15.3225 11.8744 15.2091 11.8416L11.8969 10.8825L12.6263 9.78844L20.0391 11.9691C20.2291 12.0224 20.4324 11.9987 20.6051 11.9031C20.7777 11.8075 20.9057 11.6477 20.9614 11.4584C21.017 11.2691 20.9958 11.0654 20.9023 10.8916C20.8088 10.7179 20.6505 10.5879 20.4619 10.53H20.461ZM18.75 19.3884C18.7502 19.5215 18.7192 19.6527 18.6594 19.7716C18.5997 19.8904 18.5128 19.9936 18.406 20.0728C18.2975 20.1549 18.1712 20.2105 18.0374 20.2349C17.9035 20.2593 17.7658 20.252 17.6353 20.2134L2.87533 15.9375C2.69618 15.8856 2.53855 15.7773 2.42588 15.6287C2.31322 15.48 2.25154 15.299 2.25002 15.1125C2.24965 14.9795 2.28051 14.8483 2.3401 14.7295C2.3997 14.6106 2.48637 14.5074 2.59314 14.4281C2.70169 14.3458 2.8281 14.2901 2.96214 14.2657C3.09618 14.2413 3.23409 14.2488 3.36471 14.2875L18.1247 18.5625C18.3041 18.6143 18.4619 18.7227 18.5746 18.8716C18.6873 19.0204 18.7488 19.2017 18.75 19.3884ZM13.8047 12.9966L12.2588 15.3019L9.48564 14.4975L11.0231 12.1913L13.8047 12.9966Z" fill="#26272B"/>
</svg>
