<svg width="24" height="24" viewBox="0 0 24 24" fill="none" xmlns="http://www.w3.org/2000/svg">
<path d="M11.495 2.7139C11.7015 2.29536 12.2984 2.29536 12.5049 2.7139L15.1789 8.13203C15.261 8.29823 15.4195 8.41343 15.6029 8.44008L21.5822 9.30892C22.0441 9.37604 22.2285 9.94366 21.8943 10.2695L17.5677 14.4869C17.4349 14.6162 17.3744 14.8026 17.4057 14.9853L18.4271 20.9404C18.506 21.4004 18.0231 21.7513 17.61 21.5341L12.262 18.7224C12.0979 18.6362 11.902 18.6362 11.7379 18.7224L6.38989 21.5341C5.97676 21.7513 5.49392 21.4004 5.57282 20.9404L6.5942 14.9853C6.62553 14.8026 6.56496 14.6162 6.43224 14.4869L2.10561 10.2695C1.77138 9.94366 1.95581 9.37604 2.41771 9.30892L8.39696 8.44008C8.58038 8.41343 8.73894 8.29823 8.82097 8.13203L11.495 2.7139Z" stroke="currentColor" stroke-width="2" stroke-linejoin="round"/>
</svg>
