<svg width="24" height="24" viewBox="0 0 24 24" fill="none" xmlns="http://www.w3.org/2000/svg">
<rect width="24" height="24" rx="6" fill="#0E0E0E"/>
<path d="M10.1044 5.84241C13.7333 3.88902 17.0423 3.62142 18.464 4.42157C19.2193 4.78166 20.4366 5.94191 19.8413 7.9423C19.1031 10.4231 15.9745 13.2233 11.7989 15.5438V10.0046C12.1108 9.86511 12.4273 9.71221 12.7449 9.5463C15.4215 8.14808 17.1717 6.36296 16.654 5.55915C16.1361 4.75537 13.5464 5.23724 10.8697 6.63547C8.19305 8.03371 6.44293 9.81882 6.96072 10.6226C7.33934 11.2103 8.82564 11.1106 10.6438 10.4679L10.5228 10.6106C5.46813 16.6223 8.63471 18.9646 10.8697 19.3847C0.359885 22.0973 3.81941 15.1702 8.66891 11.6561C6.70039 12.5385 5.3031 12.2202 4.98379 11.5639C4.18292 10.3575 6.47552 7.79584 10.1044 5.84241Z" fill="#00F5A0"/>
</svg>
