<svg width="204" height="48" viewBox="0 0 204 48" fill="none" xmlns="http://www.w3.org/2000/svg">
<path d="M14.1613 11.115C21.5098 7.02755 28.2104 6.46758 31.0895 8.14191C32.6189 8.89538 35.0839 11.3232 33.8785 15.509C32.3837 20.7001 26.0482 26.5595 17.5926 31.4151V19.8244C18.2241 19.5325 18.865 19.2126 19.5082 18.8654C24.9284 15.9396 28.4724 12.2043 27.4241 10.5223C26.3755 8.84038 21.1313 9.84869 15.711 12.7745C10.2907 15.7003 6.74675 19.4357 7.79526 21.1176C8.56198 22.3474 11.5717 22.1386 15.2534 20.7938L15.0085 21.0924C4.77276 33.6719 11.1851 38.5732 15.711 39.4522C-5.57143 45.1284 1.43411 30.6334 11.2543 23.2802C7.2681 25.1266 4.43858 24.4606 3.79197 23.0872C2.17022 20.5627 6.81273 15.2026 14.1613 11.115Z" fill="#0E0E0E"/>
<path d="M60.344 12.02C63.836 12.02 65.744 14.18 65.744 18.068C65.744 21.992 63.836 24.188 60.344 24.188H49.796V32.072H46.196V24.188H46.16V12.02H60.344ZM49.832 20.948H58.58C60.884 20.948 62.144 19.94 62.144 18.104C62.144 16.268 60.884 15.26 58.58 15.26H49.832V20.948ZM68.6164 12.02H72.2164V28.796H87.8044V32.072H68.6164V12.02ZM102.656 12.02L110.936 32.072H107.084L104.312 25.376H94.7718L91.9998 32.072H88.1478L96.4278 12.02H102.656ZM96.1038 22.1H102.98L100.172 15.296H98.9118L96.1038 22.1ZM123.588 23.036V32.072H119.988V23.036L111.492 12.056H115.704L121.788 20.552L127.908 12.056H132.12L123.588 23.036ZM134.65 12.02H153.838V15.296H138.25V20.66H153.478V23.936H138.25V28.796H154.558V32.072H134.65V12.02ZM171.606 12.02C175.098 12.02 177.006 14.18 177.006 18.068C177.006 20.336 176.358 21.992 175.17 23.036C176.646 24.872 177.366 27.896 177.366 32.108H173.766C173.766 26.24 172.542 24.224 168.762 24.224H161.094V32.108H157.422V12.02H171.606ZM161.094 20.948H169.842C172.146 20.948 173.406 19.94 173.406 18.104C173.406 16.268 172.146 15.26 169.842 15.26H161.094V20.948ZM184.884 25.916C186.36 27.608 187.98 28.868 192.084 29.048C195.396 29.192 198.492 28.904 198.78 26.96C199.14 24.8 197.268 23.576 192.984 23.036C187.656 22.388 181.572 22.136 181.572 17.312C181.572 11.408 190.464 11.588 193.344 11.768C197.16 12.02 200.58 13.532 202.02 17.816H198.42C197.88 16.556 196.692 15.188 192.192 14.972C189.816 14.864 185.46 15.08 185.172 16.916C184.884 18.788 187.296 19.076 191.616 19.616C196.908 20.264 202.416 21.308 202.416 26.672C202.416 32.828 194.028 32.432 191.148 32.252C185.028 31.856 182.508 28.76 181.32 25.916H184.884Z" fill="#0E0E0E"/>
</svg>
