<svg width="201" height="36" viewBox="0 0 201 36" fill="none" xmlns="http://www.w3.org/2000/svg">
<path d="M14.1613 5.11501C21.5098 1.02755 28.2104 0.467579 31.0895 2.14191C32.6189 2.89538 35.0839 5.3232 33.8785 9.50902C32.3837 14.7001 26.0482 20.5595 17.5926 25.4151V13.8244C18.2241 13.5325 18.865 13.2126 19.5082 12.8654C24.9284 9.93962 28.4724 6.20426 27.4241 4.52229C26.3755 2.84038 21.1313 3.84869 15.711 6.77448C10.2907 9.7003 6.74675 13.4357 7.79526 15.1176C8.56198 16.3474 11.5717 16.1386 15.2534 14.7938L15.0085 15.0924C4.77276 27.6719 11.1851 32.5732 15.711 33.4522C-5.57143 39.1284 1.43411 24.6334 11.2543 17.2802C7.2681 19.1266 4.43858 18.4606 3.79197 17.0872C2.17022 14.5627 6.81273 9.20255 14.1613 5.11501Z" fill="#0E0E0E"/>
<path d="M58.184 8.00093C61.676 8.00093 63.584 10.1609 63.584 14.0489C63.584 17.9729 61.676 20.1689 58.184 20.1689H47.636V28.0529H44.036V20.1689H44V8.00093H58.184ZM47.672 16.9289H56.42C58.724 16.9289 59.984 15.9209 59.984 14.0849C59.984 12.2489 58.724 11.2409 56.42 11.2409H47.672V16.9289Z" fill="#0E0E0E"/>
<path d="M66.4564 8.00093H70.0564V24.7769H83.8398V28.0529H66.4564V8.00093Z" fill="#0E0E0E"/>
<path d="M100.496 8.00093L108.776 28.0529H104.924L102.152 21.3569H92.6118L89.8398 28.0529H85.9878L94.2678 8.00093H100.496ZM93.9438 18.0809H100.82L98.0118 11.2769H96.7518L93.9438 18.0809Z" fill="#0E0E0E"/>
<path d="M121.428 19.0169V28.0529H117.828V19.0169L109.332 8.03693H113.544L119.628 16.5329L125.748 8.03693H129.96L121.428 19.0169Z" fill="#0E0E0E"/>
<path d="M132.49 8.00093H151.678V11.2769H136.09V16.6409H151.318V19.9169H136.09V24.7769H152.398V28.0529H132.49V8.00093Z" fill="#0E0E0E"/>
<path d="M169.446 8.00093C172.938 8.00093 174.846 10.1609 174.846 14.0489C174.846 16.3169 174.198 17.9729 173.01 19.0169C174.486 20.8529 175.206 23.8769 175.206 28.0889H171.606C171.606 22.2209 170.383 20.2049 166.603 20.2049H158.934V28.0889H155.262V8.00093H169.446ZM158.934 16.9289H167.682C169.986 16.9289 171.246 15.9209 171.246 14.0849C171.246 12.2489 169.986 11.2409 167.682 11.2409H158.934V16.9289Z" fill="#0E0E0E"/>
<path d="M182.724 21.8969C184.2 23.5889 185.82 24.8489 189.924 25.0289C193.236 25.1729 196.332 24.8849 196.62 22.9409C196.98 20.7809 195.108 19.5569 190.824 19.0169C185.496 18.3689 179.412 18.1169 179.412 13.2929C179.412 7.38893 188.304 7.56893 191.184 7.74893C195 8.00093 198.42 9.51293 199.86 13.7969H196.26C195.72 12.5369 194.532 11.1689 190.032 10.9529C187.656 10.8449 183.3 11.0609 183.012 12.8969C182.724 14.7689 185.136 15.0569 189.456 15.5969C194.748 16.2449 200.256 17.2889 200.256 22.6529C200.256 28.8089 191.868 28.4129 188.988 28.2329C182.868 27.8369 180.348 24.7409 179.16 21.8969H182.724Z" fill="#0E0E0E"/>
<path d="M58.184 8.00093C61.676 8.00093 63.584 10.1609 63.584 14.0489C63.584 17.9729 61.676 20.1689 58.184 20.1689H47.636V28.0529H44.036V20.1689H44V8.00093H58.184ZM47.672 16.9289H56.42C58.724 16.9289 59.984 15.9209 59.984 14.0849C59.984 12.2489 58.724 11.2409 56.42 11.2409H47.672V16.9289Z" stroke="#0E0E0E" stroke-width="1.1"/>
<path d="M66.4564 8.00093H70.0564V24.7769H83.8398V28.0529H66.4564V8.00093Z" stroke="#0E0E0E" stroke-width="1.1"/>
<path d="M100.496 8.00093L108.776 28.0529H104.924L102.152 21.3569H92.6118L89.8398 28.0529H85.9878L94.2678 8.00093H100.496ZM93.9438 18.0809H100.82L98.0118 11.2769H96.7518L93.9438 18.0809Z" stroke="#0E0E0E" stroke-width="1.1"/>
<path d="M121.428 19.0169V28.0529H117.828V19.0169L109.332 8.03693H113.544L119.628 16.5329L125.748 8.03693H129.96L121.428 19.0169Z" stroke="#0E0E0E" stroke-width="1.1"/>
<path d="M132.49 8.00093H151.678V11.2769H136.09V16.6409H151.318V19.9169H136.09V24.7769H152.398V28.0529H132.49V8.00093Z" stroke="#0E0E0E" stroke-width="1.1"/>
<path d="M169.446 8.00093C172.938 8.00093 174.846 10.1609 174.846 14.0489C174.846 16.3169 174.198 17.9729 173.01 19.0169C174.486 20.8529 175.206 23.8769 175.206 28.0889H171.606C171.606 22.2209 170.383 20.2049 166.603 20.2049H158.934V28.0889H155.262V8.00093H169.446ZM158.934 16.9289H167.682C169.986 16.9289 171.246 15.9209 171.246 14.0849C171.246 12.2489 169.986 11.2409 167.682 11.2409H158.934V16.9289Z" stroke="#0E0E0E" stroke-width="1.1"/>
<path d="M182.724 21.8969C184.2 23.5889 185.82 24.8489 189.924 25.0289C193.236 25.1729 196.332 24.8849 196.62 22.9409C196.98 20.7809 195.108 19.5569 190.824 19.0169C185.496 18.3689 179.412 18.1169 179.412 13.2929C179.412 7.38893 188.304 7.56893 191.184 7.74893C195 8.00093 198.42 9.51293 199.86 13.7969H196.26C195.72 12.5369 194.532 11.1689 190.032 10.9529C187.656 10.8449 183.3 11.0609 183.012 12.8969C182.724 14.7689 185.136 15.0569 189.456 15.5969C194.748 16.2449 200.256 17.2889 200.256 22.6529C200.256 28.8089 191.868 28.4129 188.988 28.2329C182.868 27.8369 180.348 24.7409 179.16 21.8969H182.724Z" stroke="#0E0E0E" stroke-width="1.1"/>
</svg>
