<svg width="88" height="88" viewBox="0 0 88 88" fill="none" xmlns="http://www.w3.org/2000/svg">
<rect width="88" height="88" rx="24" fill="#0E0E0E"/>
<path d="M36.8917 20.1393C50.5001 12.57 62.9086 11.533 68.2401 14.6336C71.0725 16.0289 75.6371 20.5249 73.405 28.2764C70.6368 37.8895 58.9044 48.7403 43.246 57.7322V36.2678C44.4154 35.7273 45.6022 35.1348 46.7933 34.4919C56.8306 29.0738 63.3938 22.1565 61.4524 19.0417C59.5106 15.9271 49.799 17.7943 39.7615 23.2124C29.7239 28.6306 23.161 35.5479 25.1027 38.6626C26.5225 40.9401 32.0962 40.5534 38.9141 38.0631L38.4605 38.616C19.5055 61.9113 31.3802 70.9879 39.7615 72.6155C0.349569 83.1271 13.3228 56.2845 31.5084 42.6674C24.1265 46.0866 18.8866 44.8534 17.6892 42.3101C14.686 37.6352 23.2832 27.7089 36.8917 20.1393Z" fill="#00F5A0"/>
</svg>
